<svg width="1068" height="870" viewBox="0 0 1068 870" fill="none" xmlns="http://www.w3.org/2000/svg">
<path d="M850.931 257.069C865.982 192.045 825.471 127.13 760.446 112.079C695.422 97.0276 630.507 137.539 615.456 202.563C600.405 267.588 640.916 332.502 705.941 347.554C770.965 362.605 835.879 322.094 850.931 257.069Z" fill="#9B8AF5"/>
<path d="M519.625 392.737H383.367L383.451 392.431L386.481 377.196L393.543 341.748L399.854 310.332H503.138L509.422 341.748L516.511 377.196L519.542 392.431L519.625 392.737Z" fill="#838093"/>
<path d="M509.449 341.748H393.57L399.854 310.332H503.138L509.449 341.748Z" fill="#605A77"/>
<path d="M669.006 274.745H237.324V49.6319C237.324 43.6544 242.19 38.7891 248.167 38.7891H658.164C664.141 38.7891 669.006 43.6544 669.006 49.6319V274.745Z" fill="#14111B"/>
<path d="M669.006 274.75H237.324V303.164C237.324 314.34 246.388 323.404 257.564 323.404H658.164C664.141 323.404 669.006 318.538 669.006 312.561V274.75Z" fill="#838093"/>
<path d="M544.598 400.027H358.436C356.239 400.027 354.516 398.136 354.738 395.94L356.295 380.649C356.49 378.758 358.074 377.312 359.993 377.312H543.013C544.904 377.312 546.517 378.758 546.711 380.649L548.268 395.94C548.518 398.108 546.795 400.027 544.598 400.027Z" fill="#14111B"/>
<path d="M532.059 392.737H395.801L395.884 392.431L398.915 377.196L405.976 341.748L412.287 310.332H515.544L521.855 341.748L528.945 377.196L531.975 392.431L532.059 392.737Z" fill="#AFABC4"/>
<path d="M521.872 341.748H405.965L412.276 310.332H515.56L521.872 341.748Z" fill="#887FA8"/>
<path d="M681.432 274.745H249.75V49.6319C249.75 43.6544 254.615 38.7891 260.593 38.7891H670.589C676.567 38.7891 681.432 43.6544 681.432 49.6319V274.745Z" fill="#39304C"/>
<path d="M668.058 262.599H263.149C262.621 262.599 262.176 262.154 262.176 261.626V52.3598C262.176 51.8316 262.621 51.3867 263.149 51.3867H668.058C668.586 51.3867 669.031 51.8316 669.031 52.3598V261.626C669.003 262.154 668.586 262.599 668.058 262.599Z" fill="white"/>
<path d="M681.432 274.75H249.75V303.164C249.75 314.34 258.813 323.404 269.99 323.404H670.589C676.567 323.404 681.432 318.538 681.432 312.561V274.75Z" fill="#AFABC4"/>
<path d="M489.573 308.605H438.278C436.555 308.605 435.137 307.187 435.137 305.463V304.185C435.137 302.461 436.555 301.043 438.278 301.043H489.573C491.297 301.043 492.715 302.461 492.715 304.185V305.463C492.715 307.187 491.297 308.605 489.573 308.605Z" fill="#39304C"/>
<path d="M557.02 400.027H370.858C368.661 400.027 366.938 398.136 367.16 395.94L368.717 380.649C368.911 378.758 370.496 377.312 372.415 377.312H555.435C557.326 377.312 558.938 378.758 559.133 380.649L560.69 395.94C560.912 398.108 559.216 400.027 557.02 400.027Z" fill="#39304C"/>
<path d="M417.178 411.301H161.566V497.153H417.178V411.301Z" fill="#E1B494"/>
<path d="M417.178 411.301H161.566V497.153H417.178V411.301Z" fill="#A8858F"/>
<path d="M483.764 411.301H228.152V497.153H483.764V411.301Z" fill="#E1B494"/>
<path d="M483.764 423.008H228.152V441.719H483.764V423.008Z" fill="#A8858F"/>
<path d="M476.009 411.301H237.273V489.397H476.009V411.301Z" stroke="#A8858F" stroke-width="0.7797" stroke-miterlimit="10"/>
<path d="M352.458 466.709C357.08 466.709 360.827 462.963 360.827 458.341C360.827 453.719 357.08 449.973 352.458 449.973C347.836 449.973 344.09 453.719 344.09 458.341C344.09 462.963 347.836 466.709 352.458 466.709Z" fill="#14111B"/>
<path d="M358.049 449.973H352.461V466.709H358.049V449.973Z" fill="#14111B"/>
<path d="M358.04 466.709C362.662 466.709 366.409 462.963 366.409 458.341C366.409 453.719 362.662 449.973 358.04 449.973C353.419 449.973 349.672 453.719 349.672 458.341C349.672 462.963 353.419 466.709 358.04 466.709Z" fill="#542A30"/>
<path d="M229.571 416.895H206.801V837.011H229.571V416.895Z" fill="#817C92"/>
<path d="M229.571 416.895H206.801V441.722H229.571V416.895Z" fill="#887FA8"/>
<path d="M229.571 822.055H206.801V842.322H229.571V822.055Z" fill="#39304C"/>
<path d="M959.645 416.891H936.875V837.007H959.645V416.891Z" fill="#817C92"/>
<path d="M959.645 416.891H936.875V441.718H959.645V416.891Z" fill="#887FA8"/>
<path d="M959.645 822.051H936.875V842.318H959.645V822.051Z" fill="#39304C"/>
<path d="M894.399 416.891H871.629V837.007H894.399V416.891Z" fill="#615D6D"/>
<path d="M894.399 416.891H871.629V441.718H894.399V416.891Z" fill="#6A6383"/>
<path d="M894.399 822.051H871.629V842.318H894.399V822.051Z" fill="#1E1927"/>
<path d="M161.567 416.891H138.797V837.007H161.567V416.891Z" fill="#615D6D"/>
<path d="M161.567 416.891H138.797V441.718H161.567V416.891Z" fill="#6A6383"/>
<path d="M161.567 822.051H138.797V842.318H161.567V822.051Z" fill="#1E1927"/>
<path d="M1005.97 423.003H86V404.681C86 401.873 88.2798 399.594 91.0878 399.594H1000.88C1003.69 399.594 1005.97 401.873 1005.97 404.681V423.003Z" fill="#B89379"/>
<path d="M1006 416.891H86V423.007H1006V416.891Z" fill="#7F656C"/>
<path d="M1005.97 423.003H181.645V404.681C181.645 401.873 183.924 399.594 186.732 399.594H1000.89C1003.69 399.594 1005.97 401.873 1005.97 404.681V423.003Z" fill="#E1B494"/>
<path d="M839.127 399.583H795.867V390.491C795.867 380.566 803.902 372.531 813.827 372.531H821.139C831.065 372.531 839.099 380.566 839.099 390.491V399.583H839.127Z" fill="#605A77"/>
<path d="M796.145 390.828C795.978 391.912 795.867 393.024 795.867 394.164V399.614H839.099V394.164C839.099 393.024 838.988 391.912 838.821 390.828H796.145Z" fill="#605A77"/>
<path d="M850.701 399.583H807.469V390.491C807.469 380.566 815.504 372.531 825.429 372.531H832.741C842.666 372.531 850.701 380.566 850.701 390.491V399.583Z" fill="#AFABC4"/>
<path d="M807.469 390.828C807.469 390.828 807.469 393.024 807.469 394.164V399.614H850.701V394.164C850.701 393.024 850.59 391.912 850.423 390.828H807.469Z" fill="#887FA8"/>
<path d="M506.39 381.246H492.211V390.866H506.39V381.246Z" fill="#AAA6BF"/>
<path d="M512.503 381.246H498.324V390.866H512.503V381.246Z" fill="#D6D2F0"/>
<path d="M529.386 381.246H515.207V390.866H529.386V381.246Z" fill="#AAA6BF"/>
<path d="M535.499 381.246H521.32V390.866H535.499V381.246Z" fill="#D6D2F0"/>
<path d="M552.402 381.246H538.223V390.866H552.402V381.246Z" fill="#AAA6BF"/>
<path d="M558.515 381.246H544.336V390.866H558.515V381.246Z" fill="#D6D2F0"/>
<path d="M575.394 381.246H561.215V390.866H575.394V381.246Z" fill="#AAA6BF"/>
<path d="M625.49 381.246H567.328V390.866H625.49V381.246Z" fill="#D6D2F0"/>
<path d="M644.425 381.246H630.246V390.866H644.425V381.246Z" fill="#AAA6BF"/>
<path d="M650.538 381.246H636.359V390.866H650.538V381.246Z" fill="#D6D2F0"/>
<path d="M667.421 381.246H653.242V390.866H667.421V381.246Z" fill="#AAA6BF"/>
<path d="M673.535 381.246H659.355V390.866H673.535V381.246Z" fill="#D6D2F0"/>
<path d="M690.441 381.246H676.262V390.866H690.441V381.246Z" fill="#AAA6BF"/>
<path d="M696.554 381.246H682.375V390.866H696.554V381.246Z" fill="#D6D2F0"/>
<path d="M713.433 381.246H699.254V390.866H713.433V381.246Z" fill="#AAA6BF"/>
<path d="M719.546 381.246H705.367V390.866H719.546V381.246Z" fill="#D6D2F0"/>
<path d="M736.452 381.246H722.273V390.866H736.452V381.246Z" fill="#AAA6BF"/>
<path d="M742.566 381.246H728.387V390.866H742.566V381.246Z" fill="#D6D2F0"/>
<path d="M759.445 381.246H745.266V390.866H759.445V381.246Z" fill="#AAA6BF"/>
<path d="M765.558 381.246H751.379V390.866H765.558V381.246Z" fill="#D6D2F0"/>
<path d="M766.258 386.062H461.742V400.019H766.258V386.062Z" fill="#838093"/>
<path d="M777.77 386.062H473.254V400.019H777.77V386.062Z" fill="#AFABC4"/>
<path d="M712.461 761.332V826.834H777.768L773.069 826.027C745.768 821.329 723.637 801.311 716.186 774.649L712.461 761.332Z" fill="#817C92"/>
<path d="M689.471 761.332V826.834H624.164L628.863 826.027C656.164 821.329 678.295 801.311 685.746 774.649L689.471 761.332Z" fill="#817C92"/>
<path d="M689.471 761.332C689.471 761.332 690.916 812.516 656.831 826.834H624.191L628.89 826.027C656.192 821.329 678.322 801.311 685.773 774.649L689.471 761.332Z" fill="#6A6383"/>
<path d="M712.465 540.121H689.473V826.844H712.465V540.121Z" fill="#817C92"/>
<path d="M712.465 540.121H689.473V576.903H712.465V540.121Z" fill="#6A6383"/>
<path d="M748.606 701.98H633.172V718.161H748.606V701.98Z" fill="#817C92"/>
<path d="M748.606 701.98H633.172V718.161H748.606V701.98Z" fill="#6A6383"/>
<path d="M769.207 701.98H653.773V718.161H769.207V701.98Z" fill="#615D6D"/>
<path d="M760.42 826.836H616.238V843.017H760.42V826.836Z" fill="#817C92"/>
<path d="M760.42 826.836H616.238V843.017H760.42V826.836Z" fill="#6A6383"/>
<path d="M786.142 826.836H641.961V843.017H786.142V826.836Z" fill="#615D6D"/>
<path d="M771.988 516.846H585.27V493.576C585.27 478.729 597.308 466.719 612.126 466.719H771.96V516.846H771.988Z" fill="#766CAD"/>
<path d="M815.499 516.846H646.852V493.576C646.852 478.729 658.89 466.719 673.708 466.719H788.642C803.488 466.719 815.499 478.757 815.499 493.576V516.846Z" fill="#9B8AF5"/>
<path d="M772.011 515.098H585.293V534.253H772.011V515.098Z" fill="#615D6D"/>
<path d="M772.011 515.098H585.293V534.253H772.011V515.098Z" fill="#6A6383"/>
<path d="M815.527 515.098H646.852V534.253H815.527V515.098Z" fill="#615D6D"/>
<path d="M769.203 559.746H618.767C613.317 559.746 608.091 557.717 604.059 554.047L585.293 534.391H769.231V559.746H769.203Z" fill="#14111B"/>
<path d="M422.922 195H413.889V178.789H380.588V170.781L413.889 125.908H422.922V170.781H432.395V178.789H422.922V195ZM413.889 138.408L389.816 170.781H413.889V138.408ZM475.656 194.561C472.661 195.798 469.325 196.416 465.646 196.416C461.968 196.416 458.632 195.798 455.637 194.561C452.642 193.324 450.119 191.615 448.068 189.434C446.05 187.253 444.341 184.648 442.941 181.621C441.574 178.561 440.581 175.273 439.963 171.758C439.344 168.242 439.035 164.482 439.035 160.479C439.035 156.475 439.344 152.715 439.963 149.199C440.581 145.684 441.574 142.412 442.941 139.385C444.341 136.325 446.05 133.704 448.068 131.523C450.119 129.342 452.642 127.633 455.637 126.396C458.632 125.127 461.968 124.492 465.646 124.492C469.325 124.492 472.661 125.127 475.656 126.396C478.651 127.633 481.158 129.342 483.176 131.523C485.227 133.704 486.936 136.325 488.303 139.385C489.702 142.412 490.712 145.684 491.33 149.199C491.949 152.715 492.258 156.475 492.258 160.479C492.258 164.482 491.949 168.242 491.33 171.758C490.712 175.273 489.702 178.561 488.303 181.621C486.936 184.648 485.227 187.253 483.176 189.434C481.158 191.615 478.651 193.324 475.656 194.561ZM465.646 188.408C468.837 188.408 471.587 187.66 473.898 186.162C476.242 184.665 478.065 182.581 479.367 179.912C480.702 177.243 481.678 174.313 482.297 171.123C482.915 167.9 483.225 164.352 483.225 160.479C483.225 156.605 482.915 153.073 482.297 149.883C481.678 146.66 480.702 143.714 479.367 141.045C478.065 138.376 476.242 136.292 473.898 134.795C471.587 133.265 468.837 132.5 465.646 132.5C462.456 132.5 459.689 133.265 457.346 134.795C455.002 136.292 453.163 138.376 451.828 141.045C450.526 143.714 449.566 146.66 448.947 149.883C448.329 153.105 448.02 156.637 448.02 160.479C448.02 163.538 448.199 166.403 448.557 169.072C448.947 171.709 449.566 174.232 450.412 176.641C451.291 179.049 452.398 181.117 453.732 182.842C455.067 184.535 456.743 185.885 458.762 186.895C460.78 187.904 463.075 188.408 465.646 188.408ZM541.574 195H532.541V178.789H499.24V170.781L532.541 125.908H541.574V170.781H551.047V178.789H541.574V195ZM532.541 138.408L508.469 170.781H532.541V138.408Z" fill="#14111B"/>
</svg>
