<svg width="208" height="32" viewBox="0 0 208 32" fill="none" xmlns="http://www.w3.org/2000/svg">
<path d="M102.597 32H93.1133V0H102.597V2.63203H95.8229V29.368H102.597V32Z" fill="#9095A5"/>
<path d="M114.666 32H105.183V29.368H111.957V2.63203H105.183V0H114.666V32Z" fill="#9095A5"/>
<path d="M138.159 27.846H125.445V4.15771H138.159C144.578 4.15771 149.801 9.23754 149.801 15.4813V16.5224C149.801 22.7662 144.578 27.846 138.159 27.846ZM128.152 25.214H138.159C143.085 25.214 147.095 21.3157 147.095 16.5224V15.4813C147.095 10.6895 143.087 6.78975 138.159 6.78975H128.152V25.214Z" fill="#060910"/>
<path d="M175.451 6.78975V4.15771H152.388V27.846H175.451V25.214H155.101V17.3179H175.451V14.6859H155.101V6.78975H175.451Z" fill="#060910"/>
<path d="M204.987 4.15771L193.019 27.536L181.051 4.15771H178.039L190.166 27.846H192.86H193.178H195.873L207.999 4.15771H204.987Z" fill="#060910"/>
<path d="M16.2374 16.0019V18.6339H21.3823C20.4095 22.4094 16.8929 25.214 12.7133 25.214H11.6428C6.71597 25.214 2.70623 21.3157 2.70623 16.5224V15.4813C2.70623 10.6895 6.71447 6.78975 11.6428 6.78975H12.7133C15.5699 6.78975 18.1874 8.07067 19.8923 10.305L22.0648 8.73599C19.8773 5.87 16.3802 4.15771 12.7133 4.15771H11.6428C5.22303 4.15771 0 9.23754 0 15.4813V16.5224C0 22.7662 5.22303 27.846 11.6428 27.846H12.7133C16.3005 27.846 19.5119 26.2595 21.6499 23.7708V27.846H24.3561V16.0019H16.2374Z" fill="#060910"/>
<path d="M77.5068 4.15771H59.4893V27.846H62.1715V17.3179H77.5068C80.8835 17.3179 83.6298 14.623 83.6298 11.3095V10.1661C83.6298 6.85263 80.8835 4.15771 77.5068 4.15771ZM80.9475 11.3095C80.9475 13.171 79.4037 14.6859 77.5068 14.6859H62.1715V6.78975H77.5068C79.4037 6.78975 80.9475 8.30463 80.9475 10.1661V11.3095Z" fill="#060910"/>
<path d="M53.2379 27.846H56.2558L44.1062 4.15771H39.7384L27.5889 27.846H30.6068L33.9816 21.2659H49.863L53.2379 27.846ZM35.3316 18.6339L41.9223 5.78373L48.5131 18.6339H35.3316Z" fill="#060910"/>
</svg>
