<svg width="192" height="24" viewBox="0 0 192 24" fill="none" xmlns="http://www.w3.org/2000/svg">
<path d="M16.54 23H13.3L3.61 12.14V23H0.91V1.58H3.61V11.96L13.06 1.58H16.12L6.82 11.99L16.54 23ZM30.9749 14.93C30.9749 16.27 30.7949 17.46 30.4349 18.5C30.0949 19.52 29.5949 20.39 28.9349 21.11C28.2949 21.83 27.5049 22.38 26.5649 22.76C25.6449 23.12 24.6149 23.3 23.4749 23.3C22.4149 23.3 21.4349 23.12 20.5349 22.76C19.6349 22.38 18.8549 21.83 18.1949 21.11C17.5349 20.39 17.0149 19.52 16.6349 18.5C16.2749 17.46 16.0949 16.27 16.0949 14.93C16.0949 13.15 16.3949 11.65 16.9949 10.43C17.5949 9.19 18.4549 8.25 19.5749 7.61C20.6949 6.95 22.0249 6.62 23.5649 6.62C25.0249 6.62 26.3049 6.95 27.4049 7.61C28.5249 8.25 29.3949 9.19 30.0149 10.43C30.6549 11.65 30.9749 13.15 30.9749 14.93ZM18.8249 14.93C18.8249 16.19 18.9849 17.29 19.3049 18.23C19.6449 19.15 20.1649 19.86 20.8649 20.36C21.5649 20.86 22.4549 21.11 23.5349 21.11C24.6149 21.11 25.5049 20.86 26.2049 20.36C26.9049 19.86 27.4149 19.15 27.7349 18.23C28.0749 17.29 28.2449 16.19 28.2449 14.93C28.2449 13.65 28.0749 12.56 27.7349 11.66C27.3949 10.76 26.8749 10.07 26.1749 9.59C25.4949 9.09 24.6049 8.84 23.5049 8.84C21.8649 8.84 20.6749 9.38 19.9349 10.46C19.1949 11.54 18.8249 13.03 18.8249 14.93ZM50.309 6.92V23H47.939V12.74C47.939 12.32 47.949 11.88 47.969 11.42C48.009 10.96 48.049 10.51 48.089 10.07H47.999L42.749 23H40.529L35.429 10.07H35.339C35.379 10.51 35.399 10.96 35.399 11.42C35.419 11.88 35.429 12.35 35.429 12.83V23H33.059V6.92H36.569L41.639 19.85L46.799 6.92H50.309ZM66.9318 6.92V23H64.2918V9.17H55.9818V23H53.3418V6.92H66.9318ZM82.2025 23H79.5325V9.11H74.7925C74.5925 11.65 74.3425 13.82 74.0425 15.62C73.7425 17.4 73.3625 18.85 72.9025 19.97C72.4425 21.09 71.8925 21.91 71.2525 22.43C70.6125 22.95 69.8625 23.21 69.0025 23.21C68.7425 23.21 68.4825 23.19 68.2225 23.15C67.9825 23.13 67.7825 23.08 67.6225 23V21.02C67.7425 21.06 67.8725 21.09 68.0125 21.11C68.1525 21.13 68.2925 21.14 68.4325 21.14C68.8725 21.14 69.2725 20.96 69.6325 20.6C69.9925 20.24 70.3125 19.69 70.5925 18.95C70.8925 18.21 71.1625 17.28 71.4025 16.16C71.6425 15.02 71.8525 13.68 72.0325 12.14C72.2125 10.6 72.3725 8.86 72.5125 6.92H82.2025V23ZM91.4163 6.62C92.7963 6.62 93.9763 6.92 94.9563 7.52C95.9563 8.12 96.7163 8.97 97.2363 10.07C97.7763 11.15 98.0463 12.42 98.0463 13.88V15.47H87.0363C87.0763 17.29 87.5363 18.68 88.4163 19.64C89.3163 20.58 90.5663 21.05 92.1663 21.05C93.1863 21.05 94.0863 20.96 94.8663 20.78C95.6663 20.58 96.4863 20.3 97.3263 19.94V22.25C96.5063 22.61 95.6963 22.87 94.8963 23.03C94.0963 23.21 93.1463 23.3 92.0463 23.3C90.5263 23.3 89.1763 22.99 87.9963 22.37C86.8363 21.75 85.9263 20.83 85.2663 19.61C84.6263 18.37 84.3063 16.86 84.3063 15.08C84.3063 13.32 84.5963 11.81 85.1763 10.55C85.7763 9.29 86.6063 8.32 87.6663 7.64C88.7463 6.96 89.9963 6.62 91.4163 6.62ZM91.3863 8.78C90.1263 8.78 89.1263 9.19 88.3863 10.01C87.6663 10.81 87.2363 11.93 87.0963 13.37H95.2863C95.2863 12.45 95.1463 11.65 94.8663 10.97C94.5863 10.29 94.1563 9.76 93.5763 9.38C93.0163 8.98 92.2863 8.78 91.3863 8.78ZM109.55 6.92H112.43L105.56 14.66L113 23H109.94L102.68 14.84V23H100.04V6.92H102.68V14.72L109.55 6.92ZM124.919 9.14H119.669V23H117.059V9.14H111.869V6.92H124.919V9.14ZM143.692 23L141.112 16.37H132.622L130.072 23H127.342L135.712 1.49H138.142L146.482 23H143.692ZM137.902 7.49C137.842 7.33 137.742 7.04 137.602 6.62C137.462 6.2 137.322 5.77 137.182 5.33C137.062 4.87 136.962 4.52 136.882 4.28C136.782 4.68 136.672 5.09 136.552 5.51C136.452 5.91 136.342 6.28 136.222 6.62C136.122 6.96 136.032 7.25 135.952 7.49L133.522 13.97H140.302L137.902 7.49ZM159.972 0.26C159.892 1.26 159.642 2.1 159.222 2.78C158.822 3.46 158.222 3.97 157.422 4.31C156.622 4.65 155.582 4.82 154.302 4.82C153.002 4.82 151.952 4.65 151.152 4.31C150.372 3.97 149.802 3.47 149.442 2.81C149.082 2.13 148.862 1.28 148.782 0.26H151.242C151.342 1.34 151.622 2.07 152.082 2.45C152.562 2.81 153.322 2.99 154.362 2.99C155.282 2.99 156.002 2.8 156.522 2.42C157.062 2.02 157.382 1.3 157.482 0.26H159.972ZM149.442 16.73C149.442 16.91 149.432 17.17 149.412 17.51C149.412 17.83 149.402 18.18 149.382 18.56C149.362 18.92 149.342 19.27 149.322 19.61C149.302 19.93 149.282 20.19 149.262 20.39L157.872 6.92H161.112V23H158.652V13.52C158.652 13.2 158.652 12.78 158.652 12.26C158.672 11.74 158.692 11.23 158.712 10.73C158.732 10.21 158.752 9.82 158.772 9.56L150.222 23H146.952V6.92H149.442V16.73ZM171.27 23H168.57V3.95H161.88V1.58H177.93V3.95H171.27V23ZM179.695 16.73C179.695 16.91 179.685 17.17 179.665 17.51C179.665 17.83 179.655 18.18 179.635 18.56C179.615 18.92 179.595 19.27 179.575 19.61C179.555 19.93 179.535 20.19 179.515 20.39L188.125 6.92H191.365V23H188.905V13.52C188.905 13.2 188.905 12.78 188.905 12.26C188.925 11.74 188.945 11.23 188.965 10.73C188.985 10.21 189.005 9.82 189.025 9.56L180.475 23H177.205V6.92H179.695V16.73Z" fill="black"/>
</svg>
