<svg width="56" height="19" viewBox="0 0 56 19" fill="none" xmlns="http://www.w3.org/2000/svg">
<path d="M4.9404 19H0V17.4372H3.52886V1.56277H0V0H4.9404V19Z" fill="#28E0B4"/>
<path d="M19.4912 16H12.8452V3H19.4912C22.8472 3 25.5776 5.78778 25.5776 9.21432V9.78568C25.5776 13.2122 22.8472 16 19.4912 16ZM14.2599 14.5556H19.4912C22.0667 14.5556 24.1629 12.4162 24.1629 9.78568V9.21432C24.1629 6.58463 22.0675 4.44444 19.4912 4.44444H14.2599V14.5556Z" fill="#626262"/>
<path d="M38.986 4.44444V3H26.9297V16H38.986V14.5556H28.3481V10.2222H38.986V8.77778H28.3481V4.44444H38.986Z" fill="#626262"/>
<path d="M54.4252 3L48.1689 15.8299L41.9125 3H40.3379L46.6772 16H48.0859H48.2518H49.6605L55.9998 3H54.4252Z" fill="#626262"/>
</svg>
