<svg width="57" height="19" viewBox="0 0 57 19" fill="none" xmlns="http://www.w3.org/2000/svg">
<path d="M8.55379 9.5V10.9444H11.2641C10.7516 13.0164 8.89911 14.5556 6.6973 14.5556H6.13338C3.53794 14.5556 1.42563 12.4162 1.42563 9.78568V9.21432C1.42563 6.58463 3.53715 4.44444 6.13338 4.44444H6.6973C8.20213 4.44444 9.58103 5.14741 10.4792 6.37358L11.6236 5.51253C10.4713 3.93969 8.62903 3 6.6973 3H6.13338C2.75147 3 0 5.78778 0 9.21432V9.78568C0 13.2122 2.75147 16 6.13338 16H6.6973C8.58705 16 10.2788 15.1293 11.405 13.7635V16H12.8307V9.5H8.55379Z" fill="#626262"/>
<path d="M40.8299 3H31.3384V16H32.7514V10.2222H40.8299C42.6087 10.2222 44.0555 8.74327 44.0555 6.92488V6.29735C44.0555 4.47895 42.6087 3 40.8299 3ZM42.6425 6.92488C42.6425 7.94642 41.8292 8.77778 40.8299 8.77778H32.7514V4.44444H40.8299C41.8292 4.44444 42.6425 5.2758 42.6425 6.29735V6.92488Z" fill="#626262"/>
<path d="M28.046 16H29.6358L23.2355 3H20.9345L14.5342 16H16.124L17.9019 12.3889H26.2681L28.046 16ZM18.613 10.9444L22.085 3.89235L25.557 10.9444H18.613Z" fill="#626262"/>
<path d="M57 19H52.0215V0H57V1.56277H53.4439V17.4372H57V19Z" fill="#28E0B4"/>
</svg>
